<mxfile host="app.diagrams.net" modified="2023-10-09T17:25:25.569Z" agent="Mozilla/5.0 (Windows NT 10.0; Win64; x64) AppleWebKit/537.36 (KHTML, like Gecko) Chrome/117.0.0.0 Safari/537.36" version="22.0.4" etag="jI3W17H0TI0fN7TZeigv" type="github">
  <diagram name="Page-1" id="Q-w0pLD2aMPPG47zKVyx">
    <mxGraphModel>
      <root>
        <mxCell id="0" />
        <mxCell id="1" parent="0" />
      </root>
    </mxGraphModel>
  </diagram>
</mxfile>
